<?xml version="1.0" encoding="UTF-8" standalone="no"?>
<svg
   width="24"
   height="24"
   fill="none"
   stroke="currentColor"
   stroke-linecap="round"
   stroke-linejoin="round"
   stroke-width="1.8"
   data-attribution="cc0-icons"
   viewBox="0 0 24 24"
   version="1.1"
   id="svg3"
   sodipodi:docname="settings.svg"
   inkscape:version="1.4 (86a8ad7, 2024-10-11)"
   xmlns:inkscape="http://www.inkscape.org/namespaces/inkscape"
   xmlns:sodipodi="http://sodipodi.sourceforge.net/DTD/sodipodi-0.dtd"
   xmlns="http://www.w3.org/2000/svg"
   xmlns:svg="http://www.w3.org/2000/svg">
  <sodipodi:namedview
     id="namedview3"
     pagecolor="#ffffff"
     bordercolor="#000000"
     borderopacity="0.25"
     inkscape:showpageshadow="2"
     inkscape:pageopacity="0.0"
     inkscape:pagecheckerboard="0"
     inkscape:deskcolor="#d1d1d1"
     inkscape:zoom="32.208333"
     inkscape:cx="12.015524"
     inkscape:cy="12"
     inkscape:window-width="1920"
     inkscape:window-height="991"
     inkscape:window-x="-9"
     inkscape:window-y="-9"
     inkscape:window-maximized="1"
     inkscape:current-layer="g2" />
  <g
     clip-path="url(#a)"
     id="g2">
    <path
       d="M13.688 2.866c1.267-1.718 3.988-.576 3.649 1.531-.216 1.34.995 2.537 2.315 2.338 2.11-.319 3.228 2.412 1.498 3.664-1.099.795-1.088 2.497-.016 3.289 1.718 1.267.576 3.988-1.531 3.649-1.34-.216-2.537.995-2.338 2.315.319 2.11-2.412 3.228-3.665 1.498-.794-1.099-2.496-1.088-3.288-.016-1.267 1.718-3.988.576-3.649-1.531.216-1.34-.996-2.537-2.315-2.338-2.11.319-3.228-2.412-1.498-3.665 1.099-.794 1.089-2.496.016-3.288-1.718-1.267-.576-3.988 1.531-3.649 1.34.216 2.537-.996 2.338-2.315-.319-2.11 2.412-3.228 3.664-1.498a2.036 2.036 0 0 0 3.289.016Z"
       id="path1"
       style="stroke:#ffffff;stroke-opacity:1" />
    <path
       d="M15.25 12a3.25 3.25 0 1 1-6.5 0 3.25 3.25 0 0 1 6.5 0Z"
       id="path2"
       style="stroke:#ffffff;stroke-opacity:1" />
  </g>
  <defs
     id="defs3">
    <clipPath
       id="a">
      <path
         fill="#fff"
         d="M0 0h24v24H0z"
         id="path3" />
    </clipPath>
  </defs>
</svg>
